<?xml version="1.0" encoding="UTF-8" ?>
<!DOCTYPE svg PUBLIC "-//W3C//DTD SVG 1.1//EN" "http://www.w3.org/Graphics/SVG/1.1/DTD/svg11.dtd">
<svg width="400pt" height="501pt" viewBox="0 0 400 501" version="1.1" xmlns="http://www.w3.org/2000/svg">
<path fill="#fefcfc" d=" M 0.00 0.00 L 194.20 0.00 C 160.45 1.13 126.95 10.60 97.94 27.98 C 61.31 49.67 31.94 83.36 15.52 122.64 C 6.06 144.98 1.07 169.06 0.00 193.26 L 0.00 0.00 Z" />
<path fill="#e74e3e" d=" M 194.20 0.00 L 207.72 0.00 C 236.88 1.42 265.81 8.73 291.74 22.25 C 325.72 39.78 354.46 67.27 373.48 100.43 C 389.97 128.89 398.93 161.50 400.00 194.34 L 400.00 205.75 C 399.86 208.98 399.62 212.21 399.43 215.43 C 392.00 209.80 386.31 202.24 379.20 196.23 C 374.97 192.45 369.85 189.95 365.01 187.09 C 328.16 165.87 289.06 149.05 250.21 131.93 C 232.86 124.44 215.59 116.74 197.96 109.91 C 195.37 108.57 192.77 111.51 192.95 113.91 C 195.80 123.65 200.29 132.83 202.98 142.62 C 198.25 143.54 193.74 145.28 189.11 146.58 C 174.43 150.64 159.52 153.83 144.77 157.67 C 104.13 167.61 63.50 177.59 22.87 187.58 C 21.39 188.06 19.61 188.27 18.59 189.58 C 17.70 191.10 18.36 192.94 18.70 194.54 C 21.61 203.43 26.37 211.89 33.56 218.02 C 36.02 221.95 39.72 224.82 42.87 228.16 C 99.15 284.56 155.56 340.83 211.86 397.22 C 213.56 399.41 216.57 398.91 219.02 399.07 C 185.05 402.37 150.25 396.79 119.05 382.93 C 84.38 367.62 54.29 342.17 33.34 310.59 C 12.81 279.95 1.40 243.51 0.00 206.70 L 0.00 193.26 C 1.07 169.06 6.06 144.98 15.52 122.64 C 31.94 83.36 61.31 49.67 97.94 27.98 C 126.95 10.60 160.45 1.13 194.20 0.00 Z" />
<path fill="#fefcfc" d=" M 207.72 0.00 L 400.00 0.00 L 400.00 194.34 C 398.93 161.50 389.97 128.89 373.48 100.43 C 354.46 67.27 325.72 39.78 291.74 22.25 C 265.81 8.73 236.88 1.42 207.72 0.00 Z" />
<path fill="#fefcfc" d=" M 192.95 113.91 C 192.77 111.51 195.37 108.57 197.96 109.91 C 215.59 116.74 232.86 124.44 250.21 131.93 C 289.06 149.05 328.16 165.87 365.01 187.09 C 369.85 189.95 374.97 192.45 379.20 196.23 C 379.45 197.92 379.01 199.59 378.34 201.15 C 374.00 211.41 369.48 221.59 365.16 231.85 C 364.43 233.89 362.24 235.64 360.03 235.36 C 339.20 231.67 318.10 229.34 296.96 228.56 C 288.25 236.96 278.34 244.06 267.67 249.74 C 252.74 257.32 234.23 258.76 219.01 251.17 C 193.82 257.31 168.66 263.60 143.46 269.69 C 133.80 271.90 123.10 267.67 117.60 259.42 C 114.51 254.27 111.59 248.78 110.93 242.71 C 105.60 243.85 100.38 245.54 95.00 246.40 C 87.65 246.97 79.71 244.99 74.69 239.29 C 68.93 234.03 66.17 226.48 64.67 219.02 C 59.03 219.95 53.66 222.20 47.97 222.76 C 42.66 223.27 38.05 220.36 33.56 218.02 C 26.37 211.89 21.61 203.43 18.70 194.54 C 18.36 192.94 17.70 191.10 18.59 189.58 C 19.61 188.27 21.39 188.06 22.87 187.58 C 63.50 177.59 104.13 167.61 144.77 157.67 C 159.52 153.83 174.43 150.64 189.11 146.58 C 193.74 145.28 198.25 143.54 202.98 142.62 C 200.29 132.83 195.80 123.65 192.95 113.91 Z" />
<path fill="#b83e31" d=" M 202.07 118.00 C 223.55 126.94 244.73 136.64 265.94 146.24 C 301.40 161.89 336.58 178.35 369.96 198.13 C 365.46 207.83 361.68 217.85 357.33 227.63 C 338.76 224.08 319.90 222.14 301.04 221.15 C 298.45 221.26 295.43 220.42 293.20 222.12 C 282.06 231.61 270.23 241.10 255.97 245.34 C 243.74 249.25 229.62 248.33 218.66 241.33 C 207.51 234.65 200.03 222.98 196.57 210.64 C 194.92 201.88 193.61 192.86 195.44 184.00 C 196.53 181.09 193.03 177.52 190.23 179.34 C 187.45 181.31 187.50 185.13 186.87 188.16 C 187.30 195.17 186.61 202.30 188.47 209.16 C 190.80 224.02 199.63 237.25 211.13 246.63 C 190.41 251.47 169.84 256.91 149.11 261.68 C 144.50 262.68 139.81 264.77 135.04 263.39 C 124.76 261.20 118.99 250.24 118.15 240.52 C 123.55 238.62 128.64 235.95 134.01 233.95 C 133.96 233.30 133.85 231.98 133.80 231.32 C 131.87 231.22 129.92 231.25 128.06 231.84 C 117.72 234.51 107.34 236.99 96.96 239.48 C 89.88 241.45 81.86 238.37 77.75 232.30 C 74.35 228.05 73.25 222.64 71.51 217.62 C 76.25 214.19 82.11 212.66 87.39 210.22 C 87.52 209.74 87.76 208.78 87.88 208.31 C 85.04 206.48 81.94 208.40 79.02 208.93 C 69.69 211.21 60.32 213.33 51.03 215.78 C 46.09 217.51 40.84 215.03 37.15 211.77 C 31.72 206.90 28.40 200.14 26.03 193.36 C 79.03 180.49 131.96 167.32 184.92 154.29 C 192.31 152.61 199.89 151.62 207.05 149.06 C 209.91 148.24 210.84 144.67 210.78 142.07 C 208.15 133.96 204.76 126.09 202.07 118.00 Z" />
<path fill="#fefcfc" d=" M 281.42 167.39 C 289.52 169.61 296.89 173.96 304.74 176.96 C 304.72 177.54 304.69 178.70 304.67 179.28 C 298.85 181.44 292.46 179.82 287.38 176.58 C 284.34 174.43 281.64 171.27 281.42 167.39 Z" />
<path fill="#b83e31" d=" M 379.20 196.23 C 386.31 202.24 392.00 209.80 399.43 215.43 C 396.94 247.09 386.91 278.14 370.13 305.11 C 355.01 329.57 334.54 350.70 310.59 366.62 C 283.37 384.77 251.59 396.01 219.02 399.07 C 216.57 398.91 213.56 399.41 211.86 397.22 C 155.56 340.83 99.15 284.56 42.87 228.16 C 39.72 224.82 36.02 221.95 33.56 218.02 C 38.05 220.36 42.66 223.27 47.97 222.76 C 53.66 222.20 59.03 219.95 64.67 219.02 C 66.17 226.48 68.93 234.03 74.69 239.29 C 79.71 244.99 87.65 246.97 95.00 246.40 C 100.38 245.54 105.60 243.85 110.93 242.71 C 111.59 248.78 114.51 254.27 117.60 259.42 C 123.10 267.67 133.80 271.90 143.46 269.69 C 168.66 263.60 193.82 257.31 219.01 251.17 C 234.23 258.76 252.74 257.32 267.67 249.74 C 278.34 244.06 288.25 236.96 296.96 228.56 C 318.10 229.34 339.20 231.67 360.03 235.36 C 362.24 235.64 364.43 233.89 365.16 231.85 C 369.48 221.59 374.00 211.41 378.34 201.15 C 379.01 199.59 379.45 197.92 379.20 196.23 Z" />
<path fill="#fefcfc" d=" M 399.43 215.43 C 399.62 212.21 399.86 208.98 400.00 205.75 L 400.00 501.00 L 0.00 501.00 L 0.00 206.70 C 1.40 243.51 12.81 279.95 33.34 310.59 C 54.29 342.17 84.38 367.62 119.05 382.93 C 150.25 396.79 185.05 402.37 219.02 399.07 C 251.59 396.01 283.37 384.77 310.59 366.62 C 334.54 350.70 355.01 329.57 370.13 305.11 C 386.91 278.14 396.94 247.09 399.43 215.43 Z" />
<path fill="#090909" d=" M 116.22 402.02 C 118.67 401.99 121.12 401.99 123.57 402.01 C 119.75 406.43 115.59 410.55 111.75 414.96 C 110.01 414.99 108.27 415.00 106.54 415.04 C 109.73 410.67 113.07 406.41 116.22 402.02 Z" />
<path fill="#090909" d=" M 154.27 424.20 C 161.57 418.32 171.96 417.77 180.63 420.56 C 188.74 423.12 194.48 431.10 194.86 439.52 C 193.12 439.50 191.37 439.48 189.62 439.48 C 188.54 433.68 185.19 427.92 179.54 425.59 C 172.17 422.83 162.87 423.28 156.96 428.96 C 151.38 433.94 149.37 441.76 149.60 449.02 C 149.84 455.30 149.03 461.70 150.41 467.90 C 152.17 475.67 158.12 482.80 166.15 484.43 C 172.95 485.82 180.34 484.83 186.45 481.49 C 187.70 480.60 189.65 479.74 189.59 477.94 C 189.65 472.33 189.49 466.71 189.66 461.10 C 183.51 460.86 177.35 461.11 171.20 460.94 C 171.21 459.30 171.22 457.67 171.21 456.04 C 179.23 455.94 187.25 456.03 195.27 456.00 C 195.27 464.33 195.27 472.67 195.26 481.00 C 188.13 488.85 176.62 491.04 166.49 489.65 C 157.64 488.49 149.94 482.16 146.47 474.03 C 142.84 465.85 144.10 456.68 143.88 448.00 C 143.68 439.08 147.09 429.79 154.27 424.20 Z" />
<path fill="#090909" d=" M 275.46 425.41 C 280.35 420.70 287.37 418.92 294.01 418.96 C 300.82 418.92 307.97 421.18 312.57 426.42 C 315.93 429.87 317.55 434.69 317.51 439.47 C 315.71 439.47 313.92 439.48 312.13 439.49 C 312.07 434.69 309.73 430.03 305.76 427.30 C 300.70 423.71 294.02 423.43 288.11 424.53 C 283.00 425.43 277.91 428.85 276.58 434.09 C 275.37 438.46 277.35 443.35 281.11 445.81 C 288.48 451.01 297.93 451.18 305.85 455.16 C 310.59 457.42 315.44 460.71 317.21 465.91 C 319.25 471.83 318.22 479.18 313.42 483.50 C 307.46 489.11 298.75 490.49 290.86 489.92 C 284.09 489.14 277.04 486.77 272.46 481.48 C 269.57 478.22 268.69 473.76 268.63 469.53 C 270.40 469.52 272.17 469.52 273.95 469.53 C 274.30 472.77 274.82 476.29 277.22 478.72 C 282.00 483.71 289.32 485.34 296.02 484.99 C 301.37 484.74 307.11 482.91 310.46 478.49 C 313.97 473.71 312.86 466.39 308.20 462.76 C 297.83 454.99 282.39 456.79 273.65 446.35 C 268.90 440.27 269.75 430.60 275.46 425.41 Z" />
<path fill="#090909" d=" M 30.00 420.00 C 38.66 420.02 47.32 419.97 55.97 420.01 C 61.17 420.41 66.60 421.76 70.52 425.39 C 79.90 433.82 78.24 451.66 66.63 457.34 C 56.97 461.86 46.02 459.34 35.76 460.00 C 35.78 469.65 35.71 479.31 35.79 488.96 C 33.86 488.99 31.93 489.00 30.00 489.01 C 30.00 466.00 30.00 443.00 30.00 420.00 Z" />
<path fill="#090909" d=" M 90.00 420.00 C 104.49 420.00 118.99 420.00 133.48 420.00 C 133.48 421.66 133.48 423.33 133.48 425.00 C 120.91 425.00 108.33 425.00 95.76 425.00 C 95.76 433.67 95.76 442.33 95.76 451.00 C 106.81 451.00 117.85 451.00 128.90 451.00 C 128.90 452.66 128.90 454.33 128.90 456.00 C 117.85 456.00 106.81 456.00 95.76 456.00 C 95.76 465.33 95.76 474.67 95.76 484.00 C 108.43 484.03 121.11 483.94 133.79 484.04 C 133.78 485.67 133.78 487.31 133.79 488.95 C 119.20 489.06 104.60 488.96 90.00 489.00 C 90.00 466.00 90.00 443.00 90.00 420.00 Z" />
<path fill="#090909" d=" M 231.77 419.96 C 233.54 419.99 235.31 420.00 237.08 420.00 C 245.76 443.00 254.39 466.02 263.10 489.00 C 261.11 488.99 259.12 489.00 257.13 488.99 C 254.84 482.63 252.40 476.33 250.05 470.00 C 239.50 470.05 228.95 469.88 218.40 470.10 C 216.13 476.45 213.80 482.78 211.28 489.04 C 209.32 489.00 207.36 488.99 205.41 489.00 C 214.37 466.06 222.84 442.92 231.77 419.96 Z" />
<path fill="#090909" d=" M 331.00 420.00 C 345.49 420.00 359.99 420.00 374.48 420.00 C 374.47 421.66 374.47 423.33 374.47 425.00 C 361.90 425.00 349.33 425.00 336.76 425.00 C 336.76 433.67 336.76 442.33 336.76 451.00 C 347.81 451.01 358.86 450.98 369.91 451.02 C 369.90 452.67 369.90 454.32 369.91 455.98 C 358.86 456.02 347.81 455.99 336.76 456.00 C 336.76 465.33 336.76 474.67 336.76 484.00 C 349.43 484.03 362.11 483.94 374.79 484.04 C 374.77 485.68 374.77 487.32 374.78 488.96 C 360.19 489.05 345.59 488.97 331.00 489.00 C 331.00 466.00 331.00 443.00 331.00 420.00 Z" />
<path fill="#fefcfc" d=" M 35.76 425.00 C 42.17 425.01 48.59 424.99 55.00 425.01 C 59.71 425.09 64.69 426.65 67.67 430.50 C 73.92 437.92 70.77 451.35 61.06 454.02 C 52.81 456.00 44.17 454.56 35.76 455.00 C 35.76 445.00 35.76 435.00 35.76 425.00 Z" />
<path fill="#fefcfc" d=" M 220.40 465.00 C 225.19 452.47 229.32 439.68 234.52 427.32 C 239.00 439.91 243.69 452.42 248.20 465.00 C 238.93 465.00 229.67 465.00 220.40 465.00 Z" />
</svg>
